<mxfile host="app.diagrams.net" agent="Mozilla/5.0 (Macintosh; Intel Mac OS X 10_15_7) AppleWebKit/537.36 (KHTML, like Gecko) Chrome/139.0.0.0 Safari/537.36" version="28.1.1">
  <diagram name="第 1 页" id="k5KekOWjTQKT320G7Ftv">
    <mxGraphModel dx="1018" dy="723" grid="1" gridSize="10" guides="1" tooltips="1" connect="1" arrows="1" fold="1" page="1" pageScale="1" pageWidth="1169" pageHeight="827" math="0" shadow="0">
      <root>
        <mxCell id="0" />
        <mxCell id="1" parent="0" />
        <mxCell id="sVkZoU7XB0DrTsf0YVQ0-1" value="" style="shape=image;verticalLabelPosition=bottom;labelBackgroundColor=default;verticalAlign=top;aspect=fixed;imageAspect=0;editableCssRules=.*;image=data:image/svg+xml,PHN2ZyB4bWxuczp4bGluaz0iaHR0cDovL3d3dy53My5vcmcvMTk5OS94bGluayIgeG1sbnM9Imh0dHA6Ly93d3cudzMub3JnLzIwMDAvc3ZnIiBoZWlnaHQ9IjE5My45NTQ1NTEyMTk5NDAxOSIgd2lkdGg9IjQzNi4zNjM2NDkzNjgyODYxMyIgdmVyc2lvbj0iMS4xIiB2aWV3Qm94PSIwIDAgMjIzNC4xODE4ODQ3NjU2MjUgOTkzLjA0NzMwMjI0NjA5MzgiIGNsYXNzPSJpY29uIj48cGF0aCBmaWxsPSIjMDAzM0ZGIiBkPSJNOTg2Ljc2MzYzNiAxNzMuODQ3MjczYzYzLjQ0MTQ1NSAwIDg2LjkwMDM2NC0zOC45MTIgODYuOTAwMzY0LTg2LjkwMDM2NCAwLTQ3Ljk0MTgxOC0yMy41MDU0NTUtODYuODUzODE4LTg2LjkwMDM2NC04Ni44NTM4MThzLTg2Ljg1MzgxOCAzOC44NjU0NTUtODYuODUzODE4IDg2Ljg1MzgxOGMwIDQ3Ljk4ODM2NCAyMy40NTg5MDkgODYuOTAwMzY0IDg2Ljg1MzgxOCA4Ni45MDAzNjR6Ii8+PHBhdGggZmlsbD0iIzAwMzNGRiIgZD0iTTEyOTAuODkxNjM2IDE5Mi40MTg5MDl2NTUuODU0NTQ2aC0xNDIuNzU0OTA5djEyNC4xODMyNzJoMTQyLjc1NDkwOXYzMTAuMzE4NTQ2aC0yMzUuODQ1ODE4VjI0OC4zNjY1NDVINzQ0LjcyNzI3M3YxMjQuMTM2NzI4aDE3My44MDA3Mjd2MzEwLjMxODU0NWgtMjA0Ljh2MTI0LjEzNjcyN2g5MzAuOTA5MDkxVjY4Mi44MjE4MThoLTIxNy4yMjc2MzZWMzcyLjUwMzI3M2gyMTcuMjI3NjM2VjI0OC4zNjY1NDVoLTIxNy4yMjc2MzZWMTI0LjIyOTgxOGgyMTcuMjI3NjM2VjAuMDkzMDkxaC0xNjEuMzczMDkxYTE5Mi42MDUwOTEgMTkyLjYwNTA5MSAwIDAgMC0xOTIuMzcyMzY0IDE5Mi4zNzIzNjR6Ii8+PHBhdGggZmlsbD0iIzAwMDAwMCIgZD0iTTI2My43NzMwOTEgMEgwdjgwNi44MTg5MDloMjYzLjc3MzA5MWMzMjUuODE4MTgyIDAgNDE4LjkwOTA5MS0xODYuMTgxODE4IDQxOC45MDkwOTEtNDAzLjQwOTQ1NHMtOTMuMDkwOTA5LTQwMy40MDk0NTUtNDE4LjkwOTA5MS00MDMuNDA5NDU1eiBtMy4xMTg1NDUgNjgyLjcyODcyN0gxNDguOTQ1NDU1di01NTguNTQ1NDU0aDExNy45NDYxODFjMTg3LjI5ODkwOSAwIDI2Ni44NDUwOTEgOTEuOTI3MjczIDI2Ni44NDUwOTEgMjc5LjI3MjcyNyAwIDE4Ny4yOTg5MDktNzkuNTQ2MTgyIDI3OS4yNzI3MjctMjY2Ljg0NTA5MSAyNzkuMjcyNzI3ek0yMDg2LjgxODkwOSAyNDguMzJsLTEyNC4xODMyNzMgNDAzLjQwOTQ1NUwxODM4LjU0NTQ1NSAyNDguMzJoLTE0Ny40MDk0NTVsMTgwLjAzNzgxOCA1MjEuODY3NjM2YzE4Ljc1NzgxOCA1NC4zMTg1NDUtMTIuOTM5NjM2IDk4LjY3NjM2NC03MC4zNzY3MjcgOTguNjc2MzY0aC02My4xMTU2MzZ2MTI0LjE4MzI3M2g5Mi43MTg1NDVhMTkyLjg4NDM2NCAxOTIuODg0MzY0IDAgMCAwIDE4MS4wNjE4MTgtMTI3LjI1NTI3M0wyMjM0LjE4MTgxOCAyNDguMzJoLTE0Ny4zNjI5MDl6Ii8+PC9zdmc+;" vertex="1" parent="1">
          <mxGeometry x="560" y="160" width="179.79" height="80" as="geometry" />
        </mxCell>
        <mxCell id="sVkZoU7XB0DrTsf0YVQ0-2" value="" style="shape=image;verticalLabelPosition=bottom;labelBackgroundColor=default;verticalAlign=top;aspect=fixed;imageAspect=0;editableCssRules=.*;image=data:image/svg+xml,PHN2ZyB4bWxuczp4bGluaz0iaHR0cDovL3d3dy53My5vcmcvMTk5OS94bGluayIgeG1sbnM9Imh0dHA6Ly93d3cudzMub3JnLzIwMDAvc3ZnIiBoZWlnaHQ9IjIwMC4wMDQwMjkyNzM5ODY4MiIgd2lkdGg9IjI5NC41MDAwNDEwMDc5OTU2IiB2ZXJzaW9uPSIxLjEiIHZpZXdCb3g9IjAgLTAuMDI5NjcyNjIyNjgwNjY0MDYyIDE1MDcuODQwMjA5OTYwOTM3NSAxMDI0LjAyMDYyOTg4MjgxMjUiIGNsYXNzPSJpY29uIj48cGF0aCBmaWxsPSIjNUQ4N0ExIiBkPSJNMzYyLjUyMzQ2IDkzMi44NTMxNDJoLTU4LjE4NjEwMWMtMi4wNjM5NzMtOTguMTgyMzE1LTcuNzE3NDY2LTE5MC41MTM3MTUtMTYuOTk2MzcyLTI3Ny4wMzAwOTRoLTAuNDkzNTU5bC04OC41ODAzNTIgMjc3LjAzMDA5NGgtNDQuMzEyNjExTDY1LjkwMzU2NyA2NTUuODIzMDQ4aC0wLjQ5MzU1OWMtNi41NTA4NzIgODMuMDc5NDE1LTEwLjY1MTg5NyAxNzUuNDEwODE0LTEyLjM3NDg2NiAyNzcuMDMwMDk0SDBDMy40MzY5NjQgODA5LjI4Mzk1NCAxMS45ODg5OTMgNjkzLjQwNTMxMSAyNS43Mjc4NzcgNTg1LjI3MTA1NGg3Mi4xMDQ0Nmw4My45NTg4NDcgMjU1LjM5NDI2OWgwLjUyMDQ4bDg0LjQ0MzQzMi0yNTUuMzk0MjY5aDY4Ljk5MDU1M2MxNS4xMTE4NzUgMTI2LjY0NzIgMjQuMDEzODgxIDI0Mi41MzQ4MTcgMjYuNzc3ODExIDM0Ny41OTEwNjIiLz48cGF0aCBmaWxsPSIjNUQ4N0ExIiBkPSJNNjE0Ljg0ODY5IDY3Ni4zOTk5NjVjLTIzLjY5OTc5OCAxMjguNTQwNjcxLTU0LjkyODYxMyAyMjEuOTU3OS05My43NDAyODYgMjgwLjI1MTY4Ny0zMC4yMTQ3NzUgNDQuOTA0ODgxLTYzLjMwMTE2NiA2Ny4zMzkzNzQtOTkuMzc1ODMgNjcuMzM5Mzc0LTkuNjAxOTYzIDAtMjEuNDQ3Mzc1LTIuOTA3NTEtMzUuNTM2MjM3LTguNjE0ODQ1di0zMS4wMzEzOTFjNi44NjQ5NTUgMS4wMjMwMTMgMTQuOTU5MzIgMS41NDM0OTMgMjQuMjExMzA1IDEuNTQzNDkzIDE2LjgyNTg3IDAgMzAuMzk0MjUxLTQuNjIxNTA2IDQwLjcwNTE0NC0xMy45MDkzODUgMTIuMzM4OTcxLTExLjI4OTAzNyAxOC41MDM5Ny0yNC4wMTM4ODEgMTguNTAzOTctMzguMTExNzE3IDAtOS42MDE5NjMtNC44MDA5ODItMjkuMzQ0MzE3LTE0LjQwMjk0NS01OS4yMDAxNGwtNjMuODM5NTkzLTE5OC4yNjcwNzZoNTcuMTM2MTY3bDQ1LjgyMDIwOCAxNDguMjc0MDUxYzEwLjMwMTkxOSAzMy42ODc2MzUgMTQuNTgyNDIgNTcuMjA3OTU3IDEyLjg5NTM0NyA3MC42MDU4MzcgMjUuMDYzODE2LTY2Ljk1MzUwMSA0Mi41NjI3Mi0xMzkuOTAxNDk5IDUyLjUxNDY2MS0yMTguODc5ODg4Ii8+PHBhdGggZmlsbD0iI0Y4OTgxRCIgZD0iTTEzODkuMzIzMjg1IDkzMi44NTMxNDJoLTE2NS4zMTUyOTNWNTg1LjI3MTA1NGg1NS42Mzc1NDN2MzA0LjgzMDkxOGgxMDkuNjc3NzUiLz48cGF0aCBmaWxsPSIjRjg5ODFEIiBkPSJNOTczLjc2NDY4MyA4NjMuMzA2MjEzYy0xNC4wNjE5NC0yMi42NDA4OS0yMS4xMDYzNzEtNTguOTkzNzQzLTIxLjEwNjM3MS0xMDkuMTIxMzc0IDAtODcuNTY2MzEzIDI2LjYwNzMwOS0xMzEuMzQ5NDcgNzkuODIxOTI2LTEzMS4zNDk0NyAyNy43OTE4NSAwIDQ4LjIzNDE2IDEwLjQ4MTM5NSA2MS4yNzMwODggMzEuNDA4MjkxIDE0LjA1Mjk2NiAyMi42ODU3NTkgMjEuMDk3Mzk3IDU4LjcxNTU1NSAyMS4wOTczOTcgMTA4LjE0MzIzIDAgODguMjMwMzc0LTI2LjU5ODMzNSAxMzIuMzYzNTA5LTc5LjgxMjk1MiAxMzIuMzYzNTA5LTI3LjgwMDgyNCAwLTQ4LjIzNDE2LTEwLjQ0NTUtNjEuMjczMDg4LTMxLjQ0NDE4Nm0yMDcuMDI1NTAyIDc3LjkyODQ1NWwtNjMuOTAyNDEtMzEuNDgwMDhjNS42ODA0MTQtNC43MDIyNyAxMS4xMDk1NjEtOS43MDk2NDkgMTUuOTgyMzMzLTE1LjUyNDY3IDI3LjEzNjc2My0zMS45MDE4NDkgNDAuNjk2MTctNzkuMTIxOTcgNDAuNjk2MTctMTQxLjYyNDQ2NyAwLTExNC45NzIyOS00NS4xMzgyLTE3Mi40OTQzMy0xMzUuNDE0Ni0xNzIuNDk0MzMtNDQuMzAzNjM3IDAtNzguNzg5OTQgMTQuNTgyNDItMTAzLjUxMjc1MSA0My43NzQxODMtMjcuMTI3Nzg5IDMxLjkzNzc0NC00MC42OTYxNyA3OC45NDI0OTQtNDAuNjk2MTcgMTQxLjA5NTAxMyAwIDYxLjEwMjU4NSAxMS45ODg5OTMgMTA1LjkzNTY3NiAzNi4wMzg3NyAxMzQuNDAwNTYxIDIxLjk3NjgyOSAyNS43Mjc4NzcgNTUuMDk5MTE1IDM4LjYyMzIyMyA5OS40MTE3MjUgMzguNjIzMjIzIDE2LjU0NzY4MiAwIDMxLjcyMjM3My0yLjAyODA3OCA0NS40OTcxNTItNi4xMDIxODJsODMuMjIyOTk1IDQ4LjQxMzYzNiIvPjxwYXRoIGZpbGw9IiNGODk4MUQiIGQ9Ik04NjkuNjg2NTgzIDgzNi41Mjg0MDJjMCAyOS40Nzg5MjQtMTAuNzk1NDc4IDUzLjY2MzMwNy0zMi4zOTU0MDggNzIuNTk4MDItMjEuNjI2ODUxIDE4Ljg1Mzk0OC01MC42NDgxMTEgMjguMzIxMzA0LTg3LjAwMDk2NCAyOC4zMjEzMDQtMzQuMDAxNzE4IDAtNjYuOTQ0NTI3LTEwLjkwMzE2NC05OC44OTEyNDUtMzIuNDU4MjI1bDE0Ljk0MTM3Mi0yOS44NjQ3OTdjMjcuNDc3NzY3IDEzLjcyOTkxIDUyLjMzNTE4NSAyMC41NzY5MTcgNzQuNjYxOTkzIDIwLjU3NjkxNyAyMC45MjY4OTUgMCAzNy4yOTUxMDEtNC42NjYzNzUgNDkuMTc2NDA5LTEzLjg0NjU2OSAxMS44MTg0OTEtOS4yOTY4NTQgMTguODk4ODE3LTIyLjIyODA5NiAxOC44OTg4MTctMzguNjMyMTk3IDAtMjAuNjM5NzM0LTE0LjM2NzA0OS0zOC4yODIyMTktNDAuODAzODU2LTUzLjA3MTAzNy0yNC4zOTA3ODEtMTMuMzg4OTA1LTczLjA4MjYwNS00MS4yOTc0MTUtNzMuMDgyNjA1LTQxLjI5NzQxNC0yNi40MzY4MDctMTkuMjc1NzE2LTM5LjY0NjIzNi0zOS45NjAzMTktMzkuNjQ2MjM2LTczLjk5NzkzMiAwLTI4LjE1MDgwMiA5Ljg0NDI1Ni01MC44OTkzNzggMjkuNTg2NjEtNjguMjA5ODMzIDE5LjczMzM4LTE3LjM1NTMyNCA0NS4yNTQ4NTktMjYuMDUwOTMzIDc2LjQ1Njc1Mi0yNi4wNTA5MzMgMzIuMjc4NzQ5IDAgNjEuNjE0MDkyIDguNjIzODE5IDg4LjA1MDg5OCAyNS43OTk2NjdsLTEzLjQyNDggMjkuNzkzMDA3Yy0yMi42MTM5NjktOS41NjYwNjgtNDQuOTA0ODgxLTE0LjM2NzA0OS02Ni45MTc2MDYtMTQuMzY3MDUtMTcuODEyOTg3IDAtMzEuNTUxODcxIDQuMjgwNTAxLTQxLjE1MzgzNCAxMi44OTUzNDctOS42NDY4MzIgOC41MjUxMDctMTUuNjA1NDMzIDE5LjUyNjk4My0xNS42MDU0MzQgMzIuOTE1ODg4IDAgMjAuNTc2OTE3IDE0LjcyNjAwMSAzOC40NjE2OTUgNDEuODUzNzkxIDUzLjUyODcgMjQuNzEzODM4IDEzLjM4ODkwNSA3NC42MzUwNzEgNDEuODg5Njg1IDc0LjYzNTA3MSA0MS44ODk2ODYgMjcuMTI3Nzg5IDE5LjIwMzkyNiA0MC42NjAyNzUgMzkuNjgyMTMxIDQwLjY2MDI3NSA3My40Nzc0NTEiLz48cGF0aCBmaWxsPSIjNUQ4N0ExIiBkPSJNMTQ1OS4xMjE0NzkgNDY4LjgwOTExNGMtMzMuNjE1ODQ0LTAuODQzNTM3LTU5LjYzMDg4MiAyLjUyMTYzNy04MS40NjQxMzEgMTEuNzgyNTk2LTYuMzE3NTUzIDIuNDg1NzQyLTE2LjM3NzE4IDIuNDg1NzQyLTE3LjI0NzYzOCAxMC40ODEzOTUgMy40MDEwNjkgMy4zNjUxNzQgMy43ODY5NDIgOC43OTQzMjEgNi43NjYyNDMgMTMuNDYwNjk2IDUuMDA3Mzc5IDguMzcyNTUzIDEzLjgxMDY3NCAxOS42OTc0ODUgMjEuODA2MzI3IDI1LjYyMDE5MSA4LjgzMDIxNiA2LjY5NDQ1MyAxNy42MjQ1MzggMTMuMzg4OTA1IDI2LjkyMTM5MiAxOS4yODQ2OSAxNi4zMzIzMTEgMTAuMTIyNDQzIDM0LjgzNjI4MSAxNS45NzMzNTkgNTAuNzQ2ODIzIDI2LjA3Nzg1NSA5LjI5Njg1NCA1Ljg1MDkxNiAxOC40ODYwMjIgMTMuNDI0ODAxIDI3Ljc2NDkyOSAxOS43MzMzOCA0LjU5NDU4NCAzLjM2NTE3NCA3LjUzNzk5IDguODMwMjE2IDEzLjQyNDggMTAuOTAzMTYzdi0xLjI1NjMzMWMtMi45NDM0MDUtMy43OTU5MTYtMy43ODY5NDItOS4yNjA5NTktNi42OTQ0NTItMTMuNDYwNjk2LTQuMjA4NzExLTQuMTgxNzktOC40MDg0NDgtNy45OTU2NTMtMTIuNjE3MTU5LTEyLjE2ODQ2OS0xMi4yMDQzNjQtMTYuMzY4MjA2LTI3LjM0MzE2LTMwLjYzNjU0NC00My42NzU0NzEtNDIuNDE5MTQtMTMuNDYwNjk2LTkuMjUxOTg1LTQyLjg3NjgwMy0yMS44MzMyNDktNDguMzA1OTUxLTM3LjMzMDk5NmwtMC44NDM1MzctMC44Nzk0MzJjOS4yMjUwNjQtMC44MzQ1NjMgMjAuMTkxMDQ0LTQuMTk5NzM3IDI4Ljk4NTM2NS02Ljc2NjI0MyAxNC4yNjgzMzgtMy43NDIwNzMgMjcuMjgwMzQ0LTIuOTA3NTEgNDEuOTcwNDUtNi42OTQ0NTMgNi43MzAzNDgtMS42NzgxIDEzLjQ2MDY5Ni0zLjc3Nzk2OSAyMC4yMTc5NjUtNS44NTA5MTZ2LTMuODIyODM3Yy03LjYwMDgwNi03LjUzNzk5LTEzLjAzODkyNy0xNy42MzM1MTItMjEuMDI1NjA3LTI0Ljc0OTczMy0yMS4zODQ1NTktMTguNDY4MDc1LTQ0Ljk0MDc3Ni0zNi41MjMzNTUtNjkuMzA0NjM2LTUxLjY2MjE1MS0xMy4wMzg5MjctOC40MTc0MjItMjkuODI4OTAyLTEzLjg0NjU2OS00My43MTEzNjYtMjAuOTk4Njg1LTUuMDE2MzUzLTIuNTIxNjM3LTEzLjM4ODkwNS0zLjc4Njk0Mi0xNi4zMzIzMTEtNy45ODY2OC03LjU3Mzg4NS05LjI2MDk1OS0xMS43ODI1OTYtMjEuNDI5NDI4LTE3LjI0NzYzOC0zMi4zMjM2MTctMTIuMTY4NDY5LTIzLjEwNzUyOC0yMy45NDIwOTEtNDguNjkxODI0LTM0LjQyMzQ4Ni03My4xMjc0NzQtNy41NzM4ODUtMTYuMzY4MjA2LTEyLjIwNDM2NC0zMi43MDA1MTctMjEuNDIwNDU0LTQ3Ljg0ODI4Ni00My4yODk1OTgtNzEuNDA0NTA0LTkwLjI5NDM0OC0xMTQuNjIyMzEyLTE2Mi41NDIzODktMTU3LjA3NzM0Ny0xNS41Njk1MzgtOC44MzAyMTYtMzQuMDM3NjEzLTEyLjYxNzE1OS01My43NDQwNzItMTcuMjExNzQzLTEwLjUwODMxNy0wLjQ0ODY5LTIxLjAyNTYwNy0xLjI1NjMzMi0zMS41MDcwMDItMS42NzgxLTYuNzMwMzQ4LTIuOTQzNDA1LTEzLjQ2MDY5Ni0xMC45MzkwNTktMTkuMzQ3NTA2LTE0LjcxNzAyNy0yMy45NDIwOTEtMTUuMTExODc1LTg1LjYzNjk0Ny00Ny44NTcyNjEtMTAzLjMwNjM1NC00LjYzMDQ4LTExLjMyNDkzMiAyNy4zMzQxODYgMTYuNzgxMDAxIDU0LjE5Mjc2MSAyNi40NjM3MjggNjguMDY2MjUyIDcuMTUyMTE2IDkuNjQ2ODMyIDE2LjQwNDEwMSAyMC41NzY5MTcgMjEuNDIwNDU0IDMxLjQ4MDA4MSAyLjk0MzQwNSA3LjE1MjExNiAzLjc4Njk0MiAxNC43MTcwMjcgNi43MzAzNDggMjIuMjU1MDE3IDYuNjk0NDUzIDE4LjQ4NjAyMiAxMy4wMDMwMzIgMzkuMDg5ODYxIDIxLjgzMzI0OSA1Ni4zMDE2MDQgNC41OTQ1ODQgOC44MzkxOSA5LjY0NjgzMiAxOC4wOTExNzUgMTUuNTI0NjY5IDI2LjAxNTAzOCAzLjM3NDE0OCA0LjY2NjM3NSA5LjIyNTA2NCA2LjczMDM0OCAxMC41MjYyNjQgMTQuMjk1MjU5LTUuODk1Nzg1IDguMzgxNTI3LTYuMzQ0NDc1IDIwLjk5ODY4NS05LjY3Mzc1NCAzMS41MTU5NzYtMTUuMTQ3NzcgNDcuNDcxMzg3LTkuMjYwOTU5IDEwNi4yNDk3NTkgMTIuMTU5NDk2IDE0MS4xMzA5MDggNi42OTQ0NTMgMTAuNDgxMzk1IDIyLjY3Njc4NiAzMy41Nzk5NDkgNDQuMDk3MjM5IDI0Ljc0MDc1OSAxOC45MzQ3MTItNy41Mzc5OSAxNC43MTcwMjctMzEuNDcxMTA3IDIwLjE5MTA0NC01Mi40Njk3OTIgMS4yMjk0MS01LjA4ODE0MyAwLjM4NTg3My04LjQxNzQyMiAyLjkwNzUxLTExLjc4MjU5NnYwLjg3OTQzMmM1Ljg5NTc4NSAxMS43NDY3MDEgMTEuNzgyNTk2IDIzLjAyNjc2NCAxNy4yNDc2MzggMzQuODQ1MjU1IDEzLjAxMjAwNiAyMC41NDEwMjIgMzUuNjg4NzkyIDQxLjk5NzM3MSA1NC42MTQ1MyA1Ni4yNjU3MDggMTAuMDIzNzMxIDcuNTY0OTExIDE4LjAxOTM4NSAyMC41Njc5NDMgMzAuNjM2NTQ0IDI1LjE5ODQyM3YtMS4yNTYzMzJoLTAuODQzNTM3Yy0yLjUxMjY2My0zLjc5NTkxNi02LjMwODU3OS01LjQ3NDAxNi05LjY3Mzc1My04LjM4MTUyNi03LjUzNzk5LTcuNTczODg1LTE1LjkxMDU0Mi0xNi44MjU4Ny0yMS44MzMyNDktMjUuMjA3Mzk3LTE3LjYzMzUxMi0yMy41MjAzMjItMzMuMjAzMDUtNDkuNTYyMjgyLTQ3LjAxMzcyNC03Ni40NTY3NTItNi43NTcyNjktMTMuMDM4OTI3LTEyLjYxNzE1OS0yNy4yOTgyOTEtMTguMDgyMjAxLTQwLjM0NjE5Mi0yLjUyMTYzNy01LjAwNzM3OS0yLjUyMTYzNy0xMi41ODEyNjQtNi43MzAzNDgtMTUuMTAyOTAxLTYuMzA4NTc5IDkuMjUxOTg1LTE1LjUyNDY2OSAxNy4yNDc2MzgtMjAuMTE5MjUzIDI4LjUzNjY3NS03Ljk5NTY1MyAxOC4wODIyMDEtOC44MzkxOSA0MC4zNDYxOTItMTEuNzgyNTk2IDYzLjQ0NDc0Ny0xLjY3ODEgMC40NDg2OS0wLjg0MzUzNyAwLTEuNjc4MSAwLjg0MzUzNy0xMy40MjQ4MDEtMy4zNjUxNzQtMTguMDU1MjgtMTcuMjExNzQzLTIzLjEwNzUyOC0yOC45NTg0NDQtMTIuNjE3MTU5LTI5LjgyODkwMi0xNC43MTcwMjctNzcuNzEzMDg0LTMuNzc3OTY4LTExMi4xNzI0NjUgMi45NDM0MDUtOC43OTQzMjEgMTUuNTYwNTY0LTM2LjQ4NzQ1OSAxMC41MDgzMTYtNDQuOTA0ODgyLTIuNTU3NTMyLTguMDIyNTc1LTEwLjkzMDA4NS0xMi41ODEyNjQtMTUuNTYwNTY0LTE4LjkzNDcxMi01LjQyOTE0Ny03Ljk4NjY4LTExLjM2MDgyNy0xOC4wMzczMzItMTUuMTExODc1LTI2Ljg0MDYyNy0xMC4wNTA2NTMtMjMuNTI5Mjk2LTE1LjEzODc5Ni00OS42MDcxNTEtMjYuMDQxOTU5LTczLjA5MTU3OC01LjAwNzM3OS0xMC45MzkwNTktMTMuODQ2NTY5LTIyLjI5MDkxMi0yMC45NjI3OTEtMzIuMzUwNTM5LTguMDIyNTc1LTExLjMyNDkzMi0xNi44MjU4Ny0xOS4zMjA1ODUtMjMuMTM0NDQ5LTMyLjc0NTM4Ni0yLjA2Mzk3My00LjYyMTUwNi01LjAxNjM1My0xMi4yMDQzNjQtMS42NzgxLTE3LjIxMTc0MyAwLjgzNDU2My0zLjM2NTE3NCAyLjUxMjY2My00LjYyMTUwNiA1Ljg4NjgxMS01LjQ3NDAxNyA1LjQyOTE0Ny00LjYyMTUwNiAyMC45OTg2ODUgMS4yMzgzODQgMjYuNDI3ODMzIDMuNzYwMDIxIDE1LjU2MDU2NCA2LjI3MjY4NCAyOC42MDg0NjYgMTIuMjA0MzY0IDQxLjYxMTQ5OCAyMC45OTg2ODYgNS44NTA5MTYgNC4xOTk3MzcgMTIuMTU5NDk1IDEyLjE5NTM5IDE5LjY5NzQ4NCAxNC4yOTUyNTloOC44NjYxMTJjMTMuNDI0ODAxIDIuOTE2NDg0IDI4LjUzNjY3NSAwLjgwNzY0MiA0MS4xNTM4MzQgNC42MzA0NzkgMjIuMjU1MDE3IDcuMTE2MjIxIDQyLjQxOTEzOSAxNy42MzM1MTIgNjAuNDc0NDE5IDI4Ljk1ODQ0NCA1NS4wMDA0MDMgMzQuODcyMTc2IDEwMC4zODk4NjkgODQuNDQzNDMyIDEzMS4wMjY0MTQgMTQzLjY0MzU3MiA1LjA1MjI0OCA5LjY0NjgzMiA3LjE1MjExNiAxOC40NzcwNDggMTEuNzgyNTk1IDI4LjUzNjY3NSA4Ljc5NDMyMSAyMC42Mzk3MzQgMTkuNzMzMzggNDEuNjM4NDE5IDI4LjUzNjY3NSA2MS43NjY2NDYgOC44MzAyMTYgMTkuNzQyMzU0IDE3LjIzODY2NCAzOS44ODg1MjkgMjkuODU1ODI0IDU2LjI5MjYzIDYuMjgxNjU4IDguNzk0MzIxIDMxLjQ4MDA4MSAxMy40MjQ4MDEgNDIuODQwOTA4IDE4LjA1NTI4IDguMzgxNTI3IDMuNzUxMDQ3IDIxLjQyMDQ1NCA3LjExNjIyMSAyOC45ODUzNjUgMTEuNzQ2NzAxIDE0LjI2ODMzOCA4Ljc5NDMyMSAyOC41MzY2NzUgMTguODg5ODQzIDQxLjk5NzM3MSAyOC41NjM1OTYgNi42OTQ0NTMgNS4wNTIyNDggMjcuNjkzMTM4IDE1LjUyNDY2OSAyOC45NTg0NDMgMjMuOTQyMDkxIi8+PHBhdGggZmlsbD0iIzVEODdBMSIgZD0iTTEwMzAuNzMwMzQ4IDEwMy44MjY4MzRjLTcuMTUyMTE2IDAtMTIuMTY4NDY5IDAuODQzNTM3LTE3LjI0NzYzOCAyLjEwODg0MnYwLjgzNDU2M2gwLjgzNDU2M2MzLjQxMDA0MyA2LjcwMzQyNyA5LjI1MTk4NSAxMS4zNjA4MjcgMTMuNDI0OCAxNy4yNDc2MzggMy40MTAwNDMgNi42OTQ0NTMgNi4zNDQ0NzUgMTMuMzg4OTA1IDkuNjczNzU0IDIwLjExOTI1NGwwLjg0MzUzNy0wLjgzNDU2M2M1LjkyMjcwNi00LjE3MjgxNiA4Ljg3NTA4NS0xMC45MDMxNjQgOC44NzUwODUtMjAuOTk4Njg2LTIuNTY2NTA2LTIuOTQzNDA1LTIuOTUyMzc5LTUuODg2ODExLTUuMDg4MTQzLTguODMwMjE2LTIuNDg1NzQyLTQuMTcyODE2LTcuOTU5NzU4LTYuMjgxNjU4LTExLjMyNDkzMi05LjY0NjgzMiIvPjxwYXRoIGZpbGw9IiNGODk4MUQiIGQ9Ik0xNDI5LjAwNTQxNiA5MzIuODI2MjJoOS4yMjUwNjN2LTM1LjM3NDcwOGgxMi4wNTE4MXYtNy4yMjM5MDdoLTMzLjc4NjM0NnY3LjIyMzkwN2gxMi41MDk0NzN6IG03MC4xNDgxNzMgMGg4LjY4NjYzNXYtNDIuNTk4NjE1aC0xMy4wNzQ4MjJsLTEwLjYxNjAwMiAyOS4wMjEyNi0xMS42MDMxMi0yOS4wMjEyNmgtMTIuNTkwMjM4djQyLjU4OTY0Mmg4LjIzNzk0NnYtMzIuMzk1NDA4aDAuNDU3NjY0bDEyLjEzMjU3NCAzMi4zOTU0MDhoNi4yNzI2ODRsMTIuMDk2Njc5LTMyLjM5NTQwOCIvPjwvc3ZnPg==;" vertex="1" parent="1">
          <mxGeometry x="1004.88" y="330" width="132.75" height="90" as="geometry" />
        </mxCell>
        <mxCell id="sVkZoU7XB0DrTsf0YVQ0-3" value="" style="verticalLabelPosition=bottom;sketch=0;aspect=fixed;html=1;verticalAlign=top;strokeColor=none;align=center;outlineConnect=0;shape=mxgraph.citrix.web_server;" vertex="1" parent="1">
          <mxGeometry x="790" y="470" width="76.5" height="90" as="geometry" />
        </mxCell>
        <mxCell id="sVkZoU7XB0DrTsf0YVQ0-4" value="" style="verticalLabelPosition=bottom;sketch=0;aspect=fixed;html=1;verticalAlign=top;strokeColor=none;align=center;outlineConnect=0;shape=mxgraph.citrix.database;" vertex="1" parent="1">
          <mxGeometry x="1050" y="440" width="42.5" height="50" as="geometry" />
        </mxCell>
        <mxCell id="sVkZoU7XB0DrTsf0YVQ0-5" value="" style="verticalLabelPosition=bottom;sketch=0;aspect=fixed;html=1;verticalAlign=top;strokeColor=none;align=center;outlineConnect=0;shape=mxgraph.citrix.database;" vertex="1" parent="1">
          <mxGeometry x="1070" y="540" width="42.5" height="50" as="geometry" />
        </mxCell>
        <mxCell id="sVkZoU7XB0DrTsf0YVQ0-6" value="" style="verticalLabelPosition=bottom;sketch=0;aspect=fixed;html=1;verticalAlign=top;strokeColor=none;align=center;outlineConnect=0;shape=mxgraph.citrix.web_server;" vertex="1" parent="1">
          <mxGeometry x="790" y="360" width="76.5" height="90" as="geometry" />
        </mxCell>
        <mxCell id="sVkZoU7XB0DrTsf0YVQ0-7" value="" style="verticalLabelPosition=bottom;html=1;verticalAlign=top;strokeWidth=1;align=center;outlineConnect=0;dashed=0;outlineConnect=0;shape=mxgraph.aws3d.elasticLoadBalancing;fillColor=#ECECEC;strokeColor=#5E5E5E;aspect=fixed;" vertex="1" parent="1">
          <mxGeometry x="680" y="352" width="92" height="88.17" as="geometry" />
        </mxCell>
        <mxCell id="sVkZoU7XB0DrTsf0YVQ0-8" value="" style="verticalLabelPosition=bottom;sketch=0;aspect=fixed;html=1;verticalAlign=top;strokeColor=none;align=center;outlineConnect=0;shape=mxgraph.citrix.cloud;" vertex="1" parent="1">
          <mxGeometry x="960" y="190" width="95" height="62" as="geometry" />
        </mxCell>
      </root>
    </mxGraphModel>
  </diagram>
</mxfile>
